<?xml version="1.0" encoding="UTF-8"?>
<svg id="Layer_2" xmlns="http://www.w3.org/2000/svg" viewBox="0 0 286.28 130.78">
  <defs>
    <style>
      .cls-1 {
        fill: #ce0f27;
      }

      .cls-2 {
        fill: #f4e9d9;
      }
    </style>
  </defs>
  <g id="Layer_1-2" data-name="Layer_1">
    <g>
      <g>
        <path class="cls-1" d="M263.6,126.78H22.67c-10.31,0-18.67-8.36-18.67-18.67V22.67C4,12.36,12.36,4,22.67,4h240.94c10.31,0,18.67,8.36,18.67,18.67v85.44c-.01,10.31-8.37,18.67-18.68,18.67Z"/>
        <path d="M263.6,130.78H22.67c-12.5,0-22.67-10.17-22.67-22.67V22.67C0,10.17,10.17,0,22.67,0h240.94c12.5,0,22.67,10.17,22.67,22.67v85.44c-.01,12.5-10.18,22.67-22.68,22.67ZM22.67,8c-8.09,0-14.67,6.58-14.67,14.67v85.44c0,8.09,6.58,14.67,14.67,14.67h240.94c8.09,0,14.67-6.58,14.67-14.67V22.67c0-8.09-6.58-14.67-14.67-14.67H22.67Z"/>
      </g>
      <g>
        <g>
          <path d="M213.52,70.43v2.52h-4.82v-21.8h-3.14v-4.49h3.14v-7.19h4.82v7.19h2.96v-8.22h4.53v8.22h3.36v-8.22h4.49v8.22h4.13v4.49h-4.13v11.5h-12.38v-11.5h-2.96v14.64h18.7v4.64h-18.7ZM224.37,51.15h-3.36v6.94h3.36v-6.94Z"/>
          <path d="M250.44,72.96v-13.84h2.34c-1.02-1.06-1.9-2.15-2.63-3.36h-3.29c-.62,1.13-1.46,2.3-2.45,3.4h2.26c-.11,6.24-2.23,10.88-7.01,14.28l-3.98-3.21c4.67-2.3,6.32-5.11,6.72-9.13-1.57,1.32-3.36,2.49-5.22,3.32l-2.85-4.24c3.14-.84,6.13-2.48,7.63-4.42h-4.93v-16.36h23.04v16.36h-5.15c1.75,1.9,4.78,3.4,7.74,4.2l-2.67,4.31c-1.9-.91-3.65-2.01-5.22-3.29v11.98h-4.33ZM246.17,43.15h-4.75v2.67h4.75v-2.67ZM246.17,49.21h-4.75v2.81h4.75v-2.81ZM255.66,43.15h-5.15v2.67h5.15v-2.67ZM255.66,49.21h-5.15v2.81h5.15v-2.81Z"/>
        </g>
        <g>
          <path class="cls-2" d="M206.99,83.51v-4.67h11.17v-3.54h4.6v3.54h11.36v4.67h-27.13ZM218.2,109.8v-17.6h-5.26v14.21h-4.38v-18.92h9.64v-3.14h4.53v3.14h9.97v11.65c0,6.46-1.28,6.98-7.08,6.98l-1.79-5.22h1.86c2.26,0,2.67-.11,2.67-1.46v-7.23h-5.62v17.6h-4.54Z"/>
          <path class="cls-2" d="M255.25,106.08c-1.06,1.42-2.26,2.74-3.69,3.95l-2.99-2.92c3.14-1.97,5.37-4.93,6.32-7.85h-1.09c-1.35,3.11-3.95,5.77-6.54,7.56l-2.59-3.14c2.23-1.02,4.27-2.81,5.41-4.42h-1.17c-.66.62-1.35,1.21-2.12,1.72l-1.28-2.41v3.39c-2.37,1.43-5.88,2.92-8.73,3.76l-.95-4.93c.91-.22,1.94-.51,2.96-.84v-10.19h-2.26v-4.6h2.26v-8.76h4.35v8.76h2.3v4.6h-2.3v8.51c.58-.26,1.17-.55,1.72-.88l.33-.15c.11-.07.22-.15.33-.18,1.35-.8,2.45-1.79,3.21-2.85h-3.1v-3.58h17.82v3.58h-10.74c-.25.47-.55.95-.88,1.42h11.1c-.15,13.62-.51,13.77-6.36,14.13l-1.32-3.68ZM246.89,89.36v-12.86h15.19v12.85h-15.19ZM257.99,79.9h-7.01v1.57h7.01v-1.57ZM257.99,84.46h-7.01v1.61h7.01v-1.61ZM255.99,105.46c2.7,0,2.81-.11,3.07-6.21h-.55c-.62,2.19-1.57,4.31-2.85,6.21h.33Z"/>
        </g>
      </g>
      <g>
        <path d="M33.27,20.41l-.44,2.18-2.07-.73-2.04-.41-1.54.18-.66,1.19,1.3,1.1,2.27.41,1.7.56,1.45,1.26v1.89l-1.77,1.44-2.61.56-3.05-.32-1.22-.35.19-1.38-.06-.85,1.01.12,2.27.44,1.63.06,1.07-.44-.41-.81-2.59-.81-2.61-.86-.95-1.89.82-2.46,2.55-1.04,2.78.23,2.98.73Z"/>
        <path d="M47.56,19.99l4.03-.12,2.46-.18.1,2.08-2.75-.04-2.71.34v2.15l2.55-.12,2.3-.22.28,2.02-2.42.1-2.81.18.04,1.66,3.06.06,3.56-.56.12,1.23.15,1-4.16.06-4.23.4-.88.18.12-4.38.03-3.59-.28-2.36,1.44.11Z"/>
        <path d="M67.92,20.06l2.77-.23-.06,3.16v.89l3.08-4.19,1.66.76.51.45-2.52,3.4-.72.73,2.01,1.57,2.68,2.04-1.6,1.44-3.82-3.08-1.25-1.05-.26,3.47v.28l-2.2.03-.07-5.04-.21-4.63Z"/>
        <path d="M89.55,29.4l.42-1.6,1.16-4.79.81-2.84,2.96-.86,1.01,1.88,1.35,3.96,2.18,4.26-2.59.5-.22-.82-.86-1.64h-3.65l-.57,2.52-2-.57ZM93.13,23.66l-.64,1.96,1.54.18,1.29-.09-.66-1.58-1.07-2.02-.46,1.55Z"/>
        <path d="M112.47,19.85l2.62-.09v5.89l.5,4.1-3.12.09.32-5.27-.21-3.65-.11-1.07Z"/>
      </g>
      <g>
        <g>
          <rect class="cls-2" x="25.67" y="39.65" width="14.52" height="69.51"/>
          <path d="M37.69,42.15v64.51h-9.52V42.15h9.52M42.69,37.15h-19.52v74.51h19.52V37.15h0Z"/>
        </g>
        <g>
          <path class="cls-2" d="M57.61,109.18c-8.75,0-15.11-6.58-15.11-15.64v-38.61c0-9.07,6.35-15.64,15.11-15.64s15.11,6.58,15.11,15.64v6.78h-14.45v-6.78c0-1.36-.43-1.36-.66-1.36s-.66,0-.66,1.36v38.61c0,1.36.43,1.36.66,1.36s.66,0,.66-1.36v-6.78h14.45v6.78c0,9.06-6.36,15.64-15.11,15.64Z"/>
          <path d="M57.61,41.78c7.44,0,12.62,5.4,12.62,13.15v4.29h-9.48v-4.29c0-2.41-1.17-3.85-3.15-3.85s-3.15,1.44-3.15,3.85v38.61c0,2.41,1.17,3.85,3.15,3.85s3.15-1.44,3.15-3.85v-4.29h9.48v4.29c0,7.74-5.19,13.15-12.62,13.15s-12.62-5.4-12.62-13.15v-38.61c0-7.74,5.19-13.15,12.62-13.15M57.61,36.8c-10.19,0-17.6,7.62-17.6,18.13v38.61c0,10.5,7.4,18.13,17.6,18.13s17.6-7.62,17.6-18.13v-9.27h-15.77v-20.07h15.77v-9.27c0-10.51-7.41-18.14-17.6-18.14h0Z"/>
        </g>
        <g>
          <rect class="cls-2" x="111.72" y="39.65" width="14.52" height="69.51"/>
          <path d="M123.74,42.15v64.51h-9.52V42.15h9.52M128.74,37.15h-19.52v74.51h19.52V37.15h0Z"/>
        </g>
        <g>
          <path class="cls-2" d="M129.9,109.17v-19.04h-2.85v-14.34h2.85v-20.77c0-9.11,6.38-15.71,15.18-15.71s15.18,6.61,15.18,15.71v19.39c0,4.12-1.15,6.91-2.52,8.76,1.69,2.33,2.52,5.46,2.52,9.49,0,10.19-5.82,16.51-15.18,16.51h-15.18ZM144.72,94.83c.48,0,.63-.04.67-.06-.02,0,.34-.52.34-2.38s-.35-2.23-.36-2.23h-.01s-.22-.03-.65-.03h-.3v4.7h.31ZM144.72,75.79c.5,0,1.02,0,1.02-1.37v-19.39c0-1.37-.43-1.37-.66-1.37s-.66,0-.66,1.37v20.77h.3Z"/>
          <path d="M145.08,41.8c7.47,0,12.68,5.43,12.68,13.21v19.39c0,4.69-1.64,7.29-3.43,8.74,2.31,1.92,3.43,5.04,3.43,9.5,0,8.78-4.74,14.01-12.68,14.01h-12.68v-19.04h-2.85v-9.34h2.85v-23.27c0-7.76,5.21-13.2,12.68-13.2M141.92,78.29h2.8c2.2,0,3.52-1.45,3.52-3.87v-19.39c0-2.42-1.18-3.87-3.16-3.87s-3.16,1.45-3.16,3.87v23.26M141.92,97.33h2.8c1.7,0,3.52-.38,3.52-4.94s-1.81-4.76-3.52-4.76h-2.8v9.7M145.08,36.8c-10.24,0-17.68,7.66-17.68,18.21v18.27h-2.85v19.34h2.85v19.04h17.68c10.74,0,17.68-7.46,17.68-19.01,0-3.74-.69-6.9-2.06-9.45,1.19-2.12,2.06-4.98,2.06-8.79v-19.39c0-10.56-7.44-18.22-17.68-18.22h0Z"/>
        </g>
        <g>
          <path class="cls-2" d="M178.95,109.17v-19.04h-1.32v19.04h-14.52v-19.04h-2.85v-14.34h2.85v-20.77c0-9.11,6.38-15.71,15.18-15.71s15.18,6.61,15.18,15.71v54.15h-14.52ZM178.95,75.78v-20.77c0-1.37-.43-1.37-.66-1.37s-.66,0-.66,1.37v20.77h1.32Z"/>
          <path d="M178.3,41.8c7.47,0,12.68,5.43,12.68,13.21v51.65h-9.52v-19.04h-6.32v19.04h-9.52v-19.04h-2.85v-9.34h2.85v-23.27c0-7.77,5.21-13.21,12.68-13.21M175.14,78.28h6.32v-23.27c0-2.42-1.18-3.87-3.16-3.87s-3.16,1.45-3.16,3.87v23.27M178.3,36.8c-10.24,0-17.68,7.66-17.68,18.21v18.27h-2.85v19.34h2.85v19.04h35.36v-56.65c-.01-10.55-7.44-18.21-17.68-18.21h0Z"/>
        </g>
        <g>
          <polygon class="cls-2" points="92.91 109.17 92.91 90.13 91.59 90.13 91.59 109.17 77.07 109.17 77.07 90.13 74.22 90.13 74.22 75.79 77.07 75.79 77.07 39.66 91.59 39.66 91.59 75.79 92.91 75.79 92.91 39.66 107.43 39.66 107.43 109.17 92.91 109.17"/>
          <path d="M104.93,42.16v64.51h-9.52v-19.04h-6.32v19.04h-9.52v-19.04h-2.85v-9.34h2.85v-36.12h9.52v36.12h6.32v-36.12h9.52M109.93,37.16h-35.36v36.12h-2.85v19.34h2.85v19.04h35.36V37.16h0Z"/>
        </g>
      </g>
      <g>
        <path class="cls-1" d="M69.99,86.71c-1.14,0-2.07-.65-2.81-1.18-.17-.12-.4-.29-.58-.4-.18.11-.41.27-.58.4-.75.53-1.68,1.18-2.81,1.18-.3,0-.59-.05-.87-.14-1.54-.5-2.07-2.05-2.41-3.07-.06-.18-.14-.41-.21-.59-.2-.01-.45-.02-.64-.02-1.14-.01-2.69-.04-3.64-1.34-.94-1.29-.48-2.78-.15-3.86.06-.19.13-.43.18-.63-.15-.12-.34-.26-.48-.37-.87-.65-2.19-1.63-2.19-3.27s1.32-2.62,2.19-3.27c.15-.11.34-.25.48-.37-.05-.2-.13-.44-.18-.63-.33-1.08-.79-2.56.15-3.86.95-1.3,2.51-1.32,3.64-1.34.19,0,.44-.01.64-.02.07-.18.15-.42.21-.59.35-1.02.87-2.57,2.41-3.07.28-.09.58-.14.88-.14,1.14,0,2.07.65,2.81,1.18.17.12.4.29.58.4.18-.11.41-.27.58-.4.75-.53,1.68-1.18,2.81-1.18.3,0,.59.05.87.14,1.54.5,2.07,2.05,2.41,3.07.06.18.14.41.21.59.2.01.45.02.64.02,1.14.02,2.69.04,3.64,1.34.94,1.29.48,2.78.15,3.86-.06.19-.13.43-.18.63.15.12.34.26.48.37.87.65,2.19,1.63,2.19,3.27s-1.32,2.62-2.19,3.27c-.15.11-.34.25-.48.37.05.2.13.44.18.63.33,1.08.79,2.56-.15,3.86-.95,1.3-2.5,1.32-3.64,1.34-.19,0-.44.01-.64.02-.07.18-.15.42-.21.59-.35,1.02-.87,2.57-2.41,3.07-.29.1-.58.14-.88.14Z"/>
        <path d="M63.2,62.15c1.02,0,2.33,1.66,3.4,1.66s2.38-1.66,3.4-1.66c.09,0,.17.01.26.04,1.08.35,1.1,2.8,2,3.46.91.66,3.24-.07,3.91.84.65.9-.76,2.89-.41,3.97.34,1.04,2.66,1.82,2.66,2.97s-2.33,1.93-2.66,2.97c-.35,1.08,1.06,3.07.41,3.97-.66.91-3,.18-3.91.84-.9.65-.92,3.11-2,3.46-.08.03-.17.04-.26.04-1.02,0-2.33-1.66-3.4-1.66s-2.38,1.66-3.4,1.66c-.09,0-.17-.01-.26-.04-1.08-.35-1.1-2.8-2-3.46-.91-.66-3.24.07-3.91-.84-.65-.9.76-2.89.41-3.97-.34-1.04-2.66-1.82-2.66-2.97s2.33-1.93,2.66-2.97c.35-1.08-1.06-3.07-.41-3.97.66-.91,3-.18,3.91-.84.9-.65.92-3.11,2-3.46.08-.02.17-.04.26-.04M63.2,58.15c-.51,0-1.01.08-1.49.23-2.06.67-2.95,2.35-3.43,3.61-1.34.07-3.2.39-4.47,2.14s-1,3.62-.65,4.91c-1.02.84-2.37,2.23-2.37,4.39s1.34,3.55,2.37,4.39c-.35,1.29-.62,3.17.65,4.91,1.27,1.75,3.14,2.07,4.47,2.14.48,1.26,1.37,2.94,3.43,3.61.48.16.98.23,1.49.23,1.42,0,2.55-.6,3.4-1.16.84.56,1.97,1.16,3.4,1.16.51,0,1.01-.08,1.49-.23,2.06-.67,2.95-2.35,3.43-3.61,1.34-.07,3.2-.39,4.47-2.14s1-3.62.65-4.91c1.02-.84,2.37-2.23,2.37-4.39s-1.34-3.55-2.37-4.39c.35-1.29.62-3.17-.65-4.91-1.27-1.75-3.14-2.07-4.47-2.14-.48-1.26-1.37-2.94-3.43-3.61-.48-.16-.98-.23-1.49-.23-1.42,0-2.55.6-3.4,1.16-.85-.56-1.98-1.16-3.4-1.16h0Z"/>
      </g>
    </g>
  </g>
</svg>